# 3ds Max Wavefront OBJ Exporter v0.97b - (c)2007 guruware
# File Created: 27.12.2010 12:52:10

#
# object Rectangle01
#

v  -2.0000 1.1620 -1.8489
v  2.0000 1.1620 -1.8489
v  2.0000 -0.4602 -1.8489
v  -2.0000 -0.4602 -1.8489
v  -2.0000 1.1620 2.1511
v  -2.0000 -0.4602 2.1511
v  2.0000 1.1620 2.1511
v  2.0000 -0.4602 2.1511
v  1.7500 1.1620 -1.5989
v  1.7500 1.1620 1.9011
v  -1.7500 1.1620 -1.5989
v  -1.7500 1.1620 1.9011
v  -1.7500 -0.4602 1.9011
v  1.7500 -0.4602 1.9011
v  -1.7500 -0.4602 -1.5989
v  1.7500 -0.4602 -1.5989
# 16 vertices

vn 0.0000 0.0000 -1.0000
vn -1.0000 0.0000 -0.0000
vn 0.0000 0.0000 1.0000
vn 1.0000 0.0000 -0.0000
vn 0.0000 1.0000 -0.0000
vn 0.0000 -1.0000 -0.0000
# 6 vertex normals

vt 141.5131 34.9502 57.4456
vt 110.0657 34.9502 57.4456
vt 110.0657 27.9445 57.4456
vt 141.5131 27.9445 57.4456
vt 47.1710 34.9502 57.4456
vt 15.7237 34.9502 57.4456
vt 15.7237 27.9445 57.4456
vt 47.1710 27.9445 57.4456
vt 78.6184 34.9502 57.4456
vt 78.6184 27.9445 57.4456
vt -15.7237 35.4383 50.4975
vt -47.1710 35.4383 50.4975
vt -47.1710 34.9502 57.4456
vt -15.7237 34.9502 57.4456
vt 15.7237 35.4383 50.4975
vt 47.1710 35.4383 50.4975
vt 78.6184 35.4383 50.4975
vt 172.9604 27.4564 50.4975
vt 204.4078 27.4564 50.4975
vt 204.4078 27.9445 57.4456
vt 172.9604 27.9445 57.4456
vt 141.5131 27.4564 50.4975
vt 110.0657 27.4564 50.4975
vt 78.6184 27.4564 50.4975
vt 141.5131 35.4383 50.4975
vt 110.0657 35.4383 50.4975
vt 47.1710 27.4564 50.4975
vt 15.7237 27.4564 50.4975
# 28 texture coords

g Rectangle01
usemtl wire_177026088
f 1/1/1 2/2/1 3/3/1 
f 3/3/1 4/4/1 1/1/1 
f 5/5/2 1/6/2 4/7/2 
f 4/7/2 6/8/2 5/5/2 
f 7/9/3 5/5/3 6/8/3 
f 6/8/3 8/10/3 7/9/3 
f 2/2/4 7/9/4 8/10/4 
f 8/10/4 3/3/4 2/2/4 
f 9/11/5 10/12/5 7/13/5 
f 9/11/5 7/13/5 2/14/5 
f 11/15/5 9/11/5 2/14/5 
f 11/15/5 2/14/5 1/6/5 
f 11/15/5 1/6/5 5/5/5 
f 12/16/5 11/15/5 5/5/5 
f 12/16/5 5/5/5 7/9/5 
f 12/16/5 7/9/5 10/17/5 
f 13/18/6 14/19/6 8/20/6 
f 13/18/6 8/20/6 6/21/6 
f 15/22/6 13/18/6 6/21/6 
f 15/22/6 6/21/6 4/4/6 
f 16/23/6 15/22/6 4/4/6 
f 16/23/6 4/4/6 3/3/6 
f 16/23/6 3/3/6 8/10/6 
f 16/23/6 8/10/6 14/24/6 
f 11/25/3 15/22/3 16/23/3 
f 16/23/3 9/26/3 11/25/3 
f 12/16/4 13/27/4 15/28/4 
f 15/28/4 11/15/4 12/16/4 
f 10/17/1 14/24/1 13/27/1 
f 13/27/1 12/16/1 10/17/1 
f 9/26/2 16/23/2 14/24/2 
f 14/24/2 10/17/2 9/26/2 
# 32 faces

