# 3ds Max Wavefront OBJ Exporter v0.97b - (c)2007 guruware
# File Created: 28.12.2010 15:07:57



#
# object Rectangle03
#

v  2.4429 -0.8250 0.3073
v  2.4429 -0.8250 -1.7770
v  2.4429 0.8250 -1.7770
v  2.4429 0.8250 0.3073
v  2.0395 -0.8250 -1.7770
v  2.0395 0.8250 -1.7770
v  2.0395 -0.8250 0.3073
v  2.0395 0.8250 0.3073
# 8 vertices

vn 1.0000 0.0000 -0.0000
vn -0.0000 0.0000 -1.0000
vn -1.0000 0.0000 0.0000
vn 0.0000 0.0000 1.0000
vn 0.0000 -1.0000 -0.0000
vn 0.0000 1.0000 -0.0000
# 6 vertex normals

vt -5.0108 24.9747 51.9346
vt 25.1806 26.1101 62.6301
vt 25.1806 36.7846 62.6301
vt -5.0108 37.9200 51.9346
vt 28.6977 25.5210 56.5615
vt 28.6977 37.3737 56.5615
vt -5.9884 23.8297 44.4284
vt -5.9884 39.0650 44.4284
vt 245.5903 23.8297 44.4284
vt 246.5679 24.9747 51.9346
vt 246.5679 37.9200 51.9346
vt 245.5903 39.0650 44.4284
# 12 texture coords

g Rectangle03
usemtl wire_086086086
f 1/1/1 2/2/1 3/3/1 
f 1/1/1 3/3/1 4/4/1 
f 2/2/2 5/5/2 6/6/2 
f 2/2/2 6/6/2 3/3/2 
f 5/5/3 7/7/3 8/8/3 
f 5/5/3 8/8/3 6/6/3 
f 7/9/4 1/10/4 4/11/4 
f 7/9/4 4/11/4 8/12/4 
f 5/5/5 1/1/5 7/7/5 
f 5/5/5 2/2/5 1/1/5 
f 6/6/6 8/8/6 4/4/6 
f 6/6/6 4/4/6 3/3/6 
# 12 faces

#
# object Rectangle04
#

v  0.8068 -0.8250 1.7586
v  0.8068 -0.8250 -0.1465
v  0.8068 0.8250 -0.1465
v  0.8068 0.8250 1.7586
v  0.3586 -0.8250 -0.1465
v  0.3586 0.8250 -0.1465
v  0.3586 -0.8250 1.7586
v  0.3586 0.8250 1.7586
# 8 vertices

vn 1.0000 0.0000 -0.0000
vn -0.0000 0.0000 -1.0000
vn -1.0000 0.0000 0.0000
vn 0.0000 0.0000 1.0000
vn 0.0000 -1.0000 -0.0000
vn 0.0000 1.0000 -0.0000
# 6 vertex normals

vt -45.6716 23.3783 42.0678
vt 7.1896 15.6631 23.2643
vt 7.1896 47.2316 23.2643
vt -45.6716 39.5164 42.0678
vt 15.5250 8.7881 18.2282
vt 15.5250 54.1066 18.2282
vt -54.8405 22.8214 39.5062
vt -54.8405 40.0733 39.5062
vt 196.7383 22.8214 39.5062
vt 205.9072 23.3783 42.0678
vt 205.9072 39.5164 42.0678
vt 196.7383 40.0733 39.5062
# 12 texture coords

g Rectangle04
usemtl wire_086086086
f 9/13/7 10/14/7 11/15/7 
f 9/13/7 11/15/7 12/16/7 
f 10/14/8 13/17/8 14/18/8 
f 10/14/8 14/18/8 11/15/8 
f 13/17/9 15/19/9 16/20/9 
f 13/17/9 16/20/9 14/18/9 
f 15/21/10 9/22/10 12/23/10 
f 15/21/10 12/23/10 16/24/10 
f 13/17/11 9/13/11 15/19/11 
f 13/17/11 10/14/11 9/13/11 
f 14/18/12 16/20/12 12/16/12 
f 14/18/12 12/16/12 11/15/12 
# 12 faces

#
# object Rectangle05
#

v  -0.7396 -0.8250 0.0598
v  -0.7396 -0.8250 -1.7556
v  -0.7396 0.8250 -1.7556
v  -0.7396 0.8250 0.0598
v  -1.1206 -0.8250 -1.7556
v  -1.1206 0.8250 -1.7556
v  -1.1206 -0.8250 0.0598
v  -1.1206 0.8250 0.0598
# 8 vertices

vn 1.0000 0.0000 -0.0000
vn -0.0000 0.0000 -1.0000
vn -1.0000 0.0000 0.0000
vn 0.0000 0.0000 1.0000
vn 0.0000 -1.0000 -0.0000
vn 0.0000 1.0000 -0.0000
# 6 vertex normals

vt 129.0205 14.6645 22.1920
vt 78.8595 23.2655 41.5196
vt 78.8595 39.6292 41.5196
vt 129.0205 48.2302 22.1920
vt 85.6421 23.8968 44.8038
vt 85.6421 38.9979 44.8038
vt 127.9245 18.7560 27.8566
vt 127.9245 44.1387 27.8566
# 8 texture coords

g Rectangle05
usemtl wire_086086086
f 17/25/13 18/26/13 19/27/13 
f 17/25/13 19/27/13 20/28/13 
f 18/26/14 21/29/14 22/30/14 
f 18/26/14 22/30/14 19/27/14 
f 21/29/15 23/31/15 24/32/15 
f 21/29/15 24/32/15 22/30/15 
f 23/31/16 17/25/16 20/28/16 
f 23/31/16 20/28/16 24/32/16 
f 21/29/17 17/25/17 23/31/17 
f 21/29/17 18/26/17 17/25/17 
f 22/30/18 24/32/18 20/28/18 
f 22/30/18 20/28/18 19/27/18 
# 12 faces

#
# object Rectangle01
#

v  4.0000 0.8250 -2.0000
v  4.0000 0.8250 2.0000
v  4.0000 -0.8250 2.0000
v  4.0000 -0.8250 -2.0000
v  -4.0000 0.8250 -2.0000
v  -4.0000 -0.8250 -2.0000
v  -4.0000 0.8250 2.0000
v  -4.0000 -0.8250 2.0000
v  3.7500 0.8250 1.7500
v  -3.7500 0.8250 1.7500
v  3.7500 0.8250 -1.7500
v  -3.7500 0.8250 -1.7500
v  -3.7500 -0.8250 -1.7500
v  -3.7500 -0.8250 1.7500
v  3.7500 -0.8250 -1.7500
v  3.7500 -0.8250 1.7500
# 16 vertices

vn 1.0000 0.0000 -0.0000
vn -0.0000 0.0000 -1.0000
vn -1.0000 0.0000 0.0000
vn 0.0000 0.0000 1.0000
vn 0.0000 1.0000 -0.0000
vn 0.0000 -1.0000 -0.0000
# 6 vertex normals

vt 270.1432 35.0995 90.9519
vt 233.0143 35.0995 90.9519
vt 233.0143 27.7952 90.9519
vt 270.1432 27.7952 90.9519
vt 107.2249 35.0995 90.9519
vt 18.5645 35.0995 90.9519
vt 18.5645 27.7952 90.9519
vt 107.2249 27.7952 90.9519
vt 144.3538 35.0995 90.9519
vt 144.3538 27.7952 90.9519
vt -17.4826 35.3869 84.3934
vt -108.3068 35.3869 84.3934
vt -107.2249 35.0995 90.9519
vt -18.5645 35.0995 90.9519
vt 17.4826 35.3869 84.3934
vt 108.3068 35.3869 84.3934
vt 143.2719 35.3869 84.3934
vt 359.8856 27.5078 84.3934
vt 394.8507 27.5078 84.3934
vt 395.9326 27.7952 90.9519
vt 358.8037 27.7952 90.9519
vt 269.0613 27.5078 84.3934
vt 234.0962 27.5078 84.3934
vt 143.2719 27.5078 84.3934
vt 269.0613 35.3869 84.3934
vt 234.0962 35.3869 84.3934
vt 108.3068 27.5078 84.3934
vt 17.4826 27.5078 84.3934
# 28 texture coords

g Rectangle01
usemtl wire_086086086
f 25/33/19 26/34/19 27/35/19 
f 27/35/19 28/36/19 25/33/19 
f 29/37/20 25/38/20 28/39/20 
f 28/39/20 30/40/20 29/37/20 
f 31/41/21 29/37/21 30/40/21 
f 30/40/21 32/42/21 31/41/21 
f 26/34/22 31/41/22 32/42/22 
f 32/42/22 27/35/22 26/34/22 
f 33/43/23 34/44/23 31/45/23 
f 33/43/23 31/45/23 26/46/23 
f 35/47/23 33/43/23 26/46/23 
f 35/47/23 26/46/23 25/38/23 
f 35/47/23 25/38/23 29/37/23 
f 36/48/23 35/47/23 29/37/23 
f 36/48/23 29/37/23 31/41/23 
f 36/48/23 31/41/23 34/49/23 
f 37/50/24 38/51/24 32/52/24 
f 37/50/24 32/52/24 30/53/24 
f 39/54/24 37/50/24 30/53/24 
f 39/54/24 30/53/24 28/36/24 
f 40/55/24 39/54/24 28/36/24 
f 40/55/24 28/36/24 27/35/24 
f 40/55/24 27/35/24 32/42/24 
f 40/55/24 32/42/24 38/56/24 
f 35/57/21 39/54/21 40/55/21 
f 40/55/21 33/58/21 35/57/21 
f 36/48/22 37/59/22 39/60/22 
f 39/60/22 35/47/22 36/48/22 
f 34/49/19 38/56/19 37/59/19 
f 37/59/19 36/48/19 34/49/19 
f 33/58/20 40/55/20 38/56/20 
f 38/56/20 34/49/20 33/58/20 
# 32 faces

