# 3ds Max Wavefront OBJ Exporter v0.97b - (c)2007 guruware
# File Created: 30.12.2010 14:32:49



#
# object Rectangle01
#

v  -4.0000 1.3736 2.0000
v  -4.0000 1.3736 -2.0000
v  -4.0000 -0.6264 -2.0000
v  -4.0000 -0.6264 2.0000
v  4.0000 1.3736 2.0000
v  4.0000 -0.6264 2.0000
v  4.0000 1.3736 -2.0000
v  4.0000 -0.6264 -2.0000
v  -3.7500 1.3736 -1.7725
v  3.7500 1.3736 -1.7725
v  -3.7500 1.3736 1.7275
v  3.7500 1.3736 1.7275
v  3.7500 -0.6264 1.7275
v  3.7500 -0.6264 -1.7725
v  -3.7500 -0.6264 1.7275
v  -3.7500 -0.6264 -1.7725
# 16 vertices

vn -1.0000 0.0000 0.0000
vn 0.0000 0.0000 1.0000
vn 1.0000 0.0000 -0.0000
vn -0.0000 0.0000 -1.0000
vn 0.0000 1.0000 -0.0000
vn 0.0000 -1.0000 -0.0000
# 6 vertex normals

vt 270.1432 35.8515 91.6515
vt 233.0143 35.8515 91.6515
vt 233.0143 27.0432 91.6515
vt 270.1432 27.0432 91.6515
vt 107.2249 35.8515 91.6515
vt 18.5645 35.8515 91.6515
vt 18.5645 27.0432 91.6515
vt 107.2249 27.0432 91.6515
vt 144.3538 35.8515 91.6515
vt 144.3538 27.0432 91.6515
vt -17.6796 36.1836 85.3331
vt -108.1098 36.1836 85.3331
vt -107.2249 35.8515 91.6515
vt -18.5645 35.8515 91.6515
vt 17.2846 36.2047 84.9627
vt 108.5048 36.2047 84.9627
vt 143.4690 36.1836 85.3331
vt 360.0835 26.6901 84.9627
vt 395.0477 26.7111 85.3331
vt 395.9326 27.0432 91.6515
vt 358.8036 27.0432 91.6515
vt 268.8633 26.6901 84.9627
vt 233.8991 26.7111 85.3331
vt 143.4690 26.7111 85.3331
vt 268.8633 36.2047 84.9627
vt 233.8991 36.1836 85.3331
vt 108.5048 26.6901 84.9627
vt 17.2846 26.6901 84.9627
# 28 texture coords

g Rectangle01
usemtl wire_087224087
f 1/1/1 2/2/1 3/3/1 
f 3/3/1 4/4/1 1/1/1 
f 5/5/2 1/6/2 4/7/2 
f 4/7/2 6/8/2 5/5/2 
f 7/9/3 5/5/3 6/8/3 
f 6/8/3 8/10/3 7/9/3 
f 2/2/4 7/9/4 8/10/4 
f 8/10/4 3/3/4 2/2/4 
f 9/11/5 10/12/5 7/13/5 
f 9/11/5 7/13/5 2/14/5 
f 11/15/5 9/11/5 2/14/5 
f 11/15/5 2/14/5 1/6/5 
f 11/15/5 1/6/5 5/5/5 
f 12/16/5 11/15/5 5/5/5 
f 12/16/5 5/5/5 7/9/5 
f 12/16/5 7/9/5 10/17/5 
f 13/18/6 14/19/6 8/20/6 
f 13/18/6 8/20/6 6/21/6 
f 15/22/6 13/18/6 6/21/6 
f 15/22/6 6/21/6 4/4/6 
f 15/22/6 4/4/6 3/3/6 
f 16/23/6 15/22/6 3/3/6 
f 16/23/6 3/3/6 8/10/6 
f 16/23/6 8/10/6 14/24/6 
f 11/25/3 15/22/3 16/23/3 
f 16/23/3 9/26/3 11/25/3 
f 12/16/4 13/27/4 15/28/4 
f 15/28/4 11/15/4 12/16/4 
f 10/17/1 14/24/1 13/27/1 
f 13/27/1 12/16/1 10/17/1 
f 9/26/2 16/23/2 14/24/2 
f 14/24/2 10/17/2 9/26/2 
# 32 faces

#
# object Line01
#

v  -3.7689 -0.6264 -0.4273
v  -3.7689 -0.6264 0.1345
v  -3.7689 1.3736 0.1345
v  -3.7689 1.3736 -0.4273
v  -2.4834 -0.6264 0.1247
v  -2.4834 1.3736 0.1247
v  -2.4834 -0.6264 0.9195
v  -2.4834 1.3736 0.9195
v  -2.0614 -0.6264 0.9294
v  -2.0614 1.3736 0.9294
v  -2.0614 -0.6264 -0.4273
v  -2.0614 1.3736 -0.4273
# 12 vertices

vn -1.0000 0.0000 0.0000
vn 0.0076 0.0000 1.0000
vn -0.0232 0.0000 0.9997
vn 1.0000 0.0000 -0.0000
vn -0.0000 0.0000 -1.0000
vn 0.0000 -1.0000 -0.0000
vn 0.0000 1.0000 -0.0000
# 7 vertex normals

vt -4.5207 26.2867 78.4525
vt 1.4284 26.2582 78.0319
vt 1.4284 36.6365 78.0319
vt -4.5207 36.6080 78.4525
vt 2.0089 23.7922 53.6011
vt 2.0089 39.1025 53.6011
vt 14.1993 24.2188 56.6135
vt 14.1993 38.6759 56.6135
vt 16.9589 23.1114 49.4496
vt 16.9589 39.7833 49.4496
vt -8.1844 22.5694 46.6135
vt -8.1844 40.3253 46.6135
vt 243.3943 22.5694 46.6135
vt 247.0581 26.2867 78.4525
vt 247.0581 36.6080 78.4525
vt 243.3943 40.3253 46.6135
# 16 texture coords

g Line01
usemtl wire_087224087
f 17/29/7 18/30/7 19/31/7 
f 17/29/7 19/31/7 20/32/7 
f 18/30/8 21/33/8 22/34/8 
f 18/30/8 22/34/8 19/31/8 
f 21/33/7 23/35/7 24/36/7 
f 21/33/7 24/36/7 22/34/7 
f 23/35/9 25/37/9 26/38/9 
f 23/35/9 26/38/9 24/36/9 
f 25/37/10 27/39/10 28/40/10 
f 25/37/10 28/40/10 26/38/10 
f 27/41/11 17/42/11 20/43/11 
f 27/41/11 20/43/11 28/44/11 
f 23/35/12 27/39/12 25/37/12 
f 21/33/12 27/39/12 23/35/12 
f 21/33/12 17/29/12 27/39/12 
f 18/30/12 17/29/12 21/33/12 
f 24/36/13 26/38/13 28/40/13 
f 22/34/13 24/36/13 28/40/13 
f 22/34/13 28/40/13 20/32/13 
f 19/31/13 22/34/13 20/32/13 
# 20 faces

#
# object Line02
#

v  1.0000 -0.6264 -1.7986
v  1.0000 -0.6264 0.2617
v  1.0000 1.3736 0.2617
v  1.0000 1.3736 -1.7986
v  2.5899 -0.6264 0.2617
v  2.5899 1.3736 0.2617
v  2.5997 -0.6264 -0.2387
v  2.5997 1.3736 -0.2387
v  1.5497 -0.6264 -0.2485
v  1.5497 1.3736 -0.2485
v  1.5596 -0.6264 -1.8063
v  1.5596 1.3736 -1.8063
# 12 vertices

vn -1.0000 0.0000 0.0000
vn 0.0000 0.0000 1.0000
vn 0.9998 0.0000 0.0196
vn 0.0093 0.0000 -1.0000
vn 1.0000 0.0000 0.0063
vn -0.0137 0.0000 -0.9999
vn 0.0000 -1.0000 -0.0000
vn 0.0000 1.0000 -0.0000
# 8 vertex normals

vt 168.3663 22.3916 45.7596
vt 115.5394 16.0553 28.7646
vt 115.5394 46.8395 28.7646
vt 168.3663 40.5031 45.7596
vt 121.7566 24.1045 55.7715
vt 121.7566 38.7902 55.7715
vt 129.4558 24.1239 55.9127
vt 129.4558 38.7708 55.9127
vt 132.1565 20.0905 37.2208
vt 132.1565 42.8042 37.2208
vt 160.1664 23.5031 51.7486
vt 160.1664 39.3916 51.7486
# 12 texture coords

g Line02
usemtl wire_087224087
f 29/45/14 30/46/14 31/47/14 
f 29/45/14 31/47/14 32/48/14 
f 30/46/15 33/49/15 34/50/15 
f 30/46/15 34/50/15 31/47/15 
f 33/49/16 35/51/16 36/52/16 
f 33/49/16 36/52/16 34/50/16 
f 35/51/17 37/53/17 38/54/17 
f 35/51/17 38/54/17 36/52/17 
f 37/53/18 39/55/18 40/56/18 
f 37/53/18 40/56/18 38/54/18 
f 39/55/19 29/45/19 32/48/19 
f 39/55/19 32/48/19 40/56/19 
f 37/53/20 29/45/20 39/55/20 
f 37/53/20 30/46/20 29/45/20 
f 37/53/20 33/49/20 30/46/20 
f 35/51/20 33/49/20 37/53/20 
f 38/54/21 40/56/21 32/48/21 
f 38/54/21 32/48/21 31/47/21 
f 38/54/21 31/47/21 34/50/21 
f 36/52/21 38/54/21 34/50/21 
# 20 faces

