# 3ds Max Wavefront OBJ Exporter v0.97b - (c)2007 guruware
# File Created: 30.12.2010 17:48:16



#
# object Rectangle01
#

v  -4.0000 1.5452 -2.0000
v  4.0000 1.5452 -2.0000
v  4.0000 -0.4548 -2.0000
v  -4.0000 -0.4548 -2.0000
v  -4.0000 1.5452 2.0000
v  -4.0000 -0.4548 2.0000
v  4.0000 1.5452 2.0000
v  4.0000 -0.4548 2.0000
v  3.7500 1.5452 -1.7500
v  3.7500 1.5452 1.7500
v  -3.7500 1.5452 -1.7500
v  -3.7500 1.5452 1.7500
v  -3.7500 -0.4548 1.7500
v  3.7500 -0.4548 1.7500
v  -3.7500 -0.4548 -1.7500
v  3.7500 -0.4548 -1.7500
# 16 vertices

vn 0.0000 0.0000 -1.0000
vn -1.0000 0.0000 -0.0000
vn 0.0000 0.0000 1.0000
vn 1.0000 0.0000 -0.0000
vn 0.0000 1.0000 -0.0000
vn 0.0000 -1.0000 -0.0000
# 6 vertex normals

vt 147.9545 71.7030 91.6515
vt 103.6243 71.7030 91.6515
vt 103.6243 54.0864 91.6515
vt 147.9545 54.0864 91.6515
vt 40.7296 71.7030 91.6515
vt 22.1651 71.7030 91.6515
vt 22.1651 54.0864 91.6515
vt 40.7296 54.0864 91.6515
vt 85.0598 71.7030 91.6515
vt 85.0598 54.0864 91.6515
vt -22.7061 72.3883 85.1469
vt -40.1886 72.3883 85.1469
vt -40.7296 71.7030 91.6515
vt -22.1651 71.7030 91.6515
vt 22.7061 72.3883 85.1469
vt 40.1886 72.3883 85.1469
vt 85.6008 72.3883 85.1469
vt 165.9781 53.4011 85.1469
vt 211.3902 53.4011 85.1469
vt 210.8493 54.0864 91.6515
vt 166.5190 54.0864 91.6515
vt 148.4955 53.4011 85.1469
vt 103.0833 53.4011 85.1469
vt 85.6008 53.4011 85.1469
vt 148.4955 72.3883 85.1469
vt 103.0833 72.3883 85.1469
vt 40.1886 53.4011 85.1469
vt 22.7061 53.4011 85.1469
# 28 texture coords

g Rectangle01
usemtl wire_006134006
f 1/1/1 2/2/1 3/3/1 
f 3/3/1 4/4/1 1/1/1 
f 5/5/2 1/6/2 4/7/2 
f 4/7/2 6/8/2 5/5/2 
f 7/9/3 5/5/3 6/8/3 
f 6/8/3 8/10/3 7/9/3 
f 2/2/4 7/9/4 8/10/4 
f 8/10/4 3/3/4 2/2/4 
f 9/11/5 10/12/5 7/13/5 
f 9/11/5 7/13/5 2/14/5 
f 11/15/5 9/11/5 2/14/5 
f 11/15/5 2/14/5 1/6/5 
f 11/15/5 1/6/5 5/5/5 
f 12/16/5 11/15/5 5/5/5 
f 12/16/5 5/5/5 7/9/5 
f 12/16/5 7/9/5 10/17/5 
f 13/18/6 14/19/6 8/20/6 
f 13/18/6 8/20/6 6/21/6 
f 15/22/6 13/18/6 6/21/6 
f 15/22/6 6/21/6 4/4/6 
f 16/23/6 15/22/6 4/4/6 
f 16/23/6 4/4/6 3/3/6 
f 16/23/6 3/3/6 8/10/6 
f 16/23/6 8/10/6 14/24/6 
f 11/25/3 15/22/3 16/23/3 
f 16/23/3 9/26/3 11/25/3 
f 12/16/4 13/27/4 15/28/4 
f 15/28/4 11/15/4 12/16/4 
f 10/17/1 14/24/1 13/27/1 
f 13/27/1 12/16/1 10/17/1 
f 9/26/2 16/23/2 14/24/2 
f 14/24/2 10/17/2 9/26/2 
# 32 faces

#
# object Line01
#

v  -3.7953 -0.4548 -1.0462
v  1.9000 -0.4548 -1.0462
v  1.9000 1.5452 -1.0462
v  -3.7953 1.5452 -1.0462
v  1.9000 -0.4548 0.8000
v  1.9000 1.5452 0.8000
v  -1.3140 -0.4548 0.8000
v  -1.3140 1.5452 0.8000
v  -1.3035 -0.4548 -0.2000
v  -1.3035 1.5452 -0.2000
v  0.2000 -0.4548 -0.2000
v  0.2000 1.5452 -0.2000
v  0.2000 -0.4548 -0.6000
v  0.2000 1.5452 -0.6000
v  -2.2000 -0.4548 -0.6000
v  -2.2000 1.5452 -0.6000
v  -2.2000 -0.4548 -0.2000
v  -2.2000 1.5452 -0.2000
v  -1.6000 -0.4548 -0.2000
v  -1.6000 1.5452 -0.2000
v  -1.6000 -0.4548 1.0000
v  -1.6000 1.5452 1.0000
v  2.2000 -0.4548 1.0000
v  2.2000 1.5452 1.0000
v  2.2000 -0.4548 -1.2462
v  2.2000 1.5452 -1.2462
v  -3.7847 -0.4548 -1.2462
v  -3.7847 1.5452 -1.2462
# 28 vertices

vn 0.0000 0.0000 1.0000
vn -1.0000 0.0000 -0.0000
vn 0.0000 0.0000 -1.0000
vn 0.9999 0.0000 0.0106
vn 1.0000 0.0000 -0.0000
vn -0.9986 0.0000 -0.0529
vn 0.0000 -1.0000 -0.0000
vn 0.0000 1.0000 -0.0000
# 8 vertex normals

vt 26.0627 52.9348 81.2381
vt -21.3711 45.5973 47.7679
vt -21.3711 80.1921 47.7679
vt 26.0627 72.8545 81.2381
vt 104.4183 45.5973 47.7679
vt 86.3636 44.8113 45.8257
vt 86.3636 80.9781 45.8257
vt 104.4183 80.1921 47.7679
vt 42.3957 39.8161 36.6972
vt 42.3957 85.9733 36.6972
vt 28.3993 36.9166 33.0998
vt 28.3993 88.8727 33.0998
vt -15.7237 11.0367 20.7846
vt -15.7237 114.7526 20.7846
vt 110.0657 11.0367 20.7846
vt 119.3480 22.5803 23.6643
vt 119.3480 103.2091 23.6643
vt 110.0657 114.7526 20.7846
vt -6.4415 22.5803 23.6643
vt 26.1170 46.3472 49.7996
vt 26.1170 79.4422 49.7996
vt -6.4415 103.2091 23.6643
vt 29.6323 45.8745 48.4974
vt 29.6323 79.9149 48.4974
vt 28.9578 40.6676 37.9473
vt 28.9578 85.1217 37.9473
vt 42.6305 43.3809 42.7083
vt 42.6305 82.4085 42.7083
vt 85.8010 47.1851 52.3068
vt 85.8010 78.6043 52.3068
vt 104.6598 47.8146 54.3798
vt 104.6598 77.9747 54.3798
vt -21.1296 47.8146 54.3798
vt 25.0794 53.0494 82.1636
vt 25.0794 72.7400 82.1636
vt -21.1296 77.9747 54.3798
# 36 texture coords

g Line01
usemtl wire_006134006
f 17/29/7 18/30/7 19/31/7 
f 17/29/7 19/31/7 20/32/7 
f 18/33/8 21/34/8 22/35/8 
f 18/33/8 22/35/8 19/36/8 
f 21/34/9 23/37/9 24/38/9 
f 21/34/9 24/38/9 22/35/9 
f 23/37/10 25/39/10 26/40/10 
f 23/37/10 26/40/10 24/38/10 
f 25/39/7 27/41/7 28/42/7 
f 25/39/7 28/42/7 26/40/7 
f 27/43/11 29/44/11 30/45/11 
f 27/43/11 30/45/11 28/46/11 
f 29/47/9 31/48/9 32/49/9 
f 29/47/9 32/49/9 30/50/9 
f 31/48/8 33/51/8 34/52/8 
f 31/48/8 34/52/8 32/49/8 
f 33/51/7 35/53/7 36/54/7 
f 33/51/7 36/54/7 34/52/7 
f 35/53/8 37/55/8 38/56/8 
f 35/53/8 38/56/8 36/54/8 
f 37/55/7 39/57/7 40/58/7 
f 37/55/7 40/58/7 38/56/7 
f 39/57/11 41/59/11 42/60/11 
f 39/57/11 42/60/11 40/58/11 
f 41/61/9 43/62/9 44/63/9 
f 41/61/9 44/63/9 42/64/9 
f 43/62/12 17/29/12 20/32/12 
f 43/62/12 20/32/12 44/63/12 
f 43/62/13 18/30/13 17/29/13 
f 41/61/13 18/30/13 43/62/13 
f 39/57/13 18/33/13 41/59/13 
f 39/57/13 21/34/13 18/33/13 
f 37/55/13 21/34/13 39/57/13 
f 37/55/13 23/37/13 21/34/13 
f 35/53/13 23/37/13 37/55/13 
f 35/53/13 25/39/13 23/37/13 
f 31/48/13 35/53/13 33/51/13 
f 29/47/13 35/53/13 31/48/13 
f 29/47/13 25/39/13 35/53/13 
f 29/47/13 27/41/13 25/39/13 
f 44/63/14 20/32/14 19/31/14 
f 42/64/14 44/63/14 19/31/14 
f 40/58/14 42/60/14 19/36/14 
f 40/58/14 19/36/14 22/35/14 
f 38/56/14 40/58/14 22/35/14 
f 38/56/14 22/35/14 24/38/14 
f 36/54/14 38/56/14 24/38/14 
f 36/54/14 24/38/14 26/40/14 
f 32/49/14 34/52/14 36/54/14 
f 30/50/14 32/49/14 36/54/14 
f 30/50/14 36/54/14 26/40/14 
f 30/50/14 26/40/14 28/42/14 
# 52 faces

#
# object Rectangle03
#

v  -2.8000 -0.4548 -0.6000
v  -3.7814 -0.4548 -0.6000
v  -3.7814 1.5452 -0.6000
v  -2.8000 1.5452 -0.6000
v  -3.7814 -0.4548 -0.2000
v  -3.7814 1.5452 -0.2000
v  -2.8000 -0.4548 -0.2000
v  -2.8000 1.5452 -0.2000
# 8 vertices

vn 0.0000 0.0000 -1.0000
vn -1.0000 0.0000 -0.0000
vn 0.0000 0.0000 1.0000
vn 1.0000 0.0000 -0.0000
vn 0.0000 -1.0000 -0.0000
vn 0.0000 1.0000 -0.0000
# 6 vertex normals

vt 27.2213 49.4422 60.6630
vt 28.2970 52.6653 79.1426
vt 28.2970 73.1241 79.1426
vt 27.2213 76.3471 60.6630
vt 30.3895 52.5568 78.3297
vt 30.3895 73.2326 78.3297
vt 30.0198 49.1922 59.5987
vt 30.0198 76.5971 59.5987
# 8 texture coords

g Rectangle03
usemtl wire_006134006
f 45/65/15 46/66/15 47/67/15 
f 45/65/15 47/67/15 48/68/15 
f 46/66/16 49/69/16 50/70/16 
f 46/66/16 50/70/16 47/67/16 
f 49/69/17 51/71/17 52/72/17 
f 49/69/17 52/72/17 50/70/17 
f 51/71/18 45/65/18 48/68/18 
f 51/71/18 48/68/18 52/72/18 
f 49/69/19 45/65/19 51/71/19 
f 49/69/19 46/66/19 45/65/19 
f 50/70/20 52/72/20 48/68/20 
f 50/70/20 48/68/20 47/67/20 
# 12 faces

#
# object Line02
#

v  -3.7741 -0.4548 1.3000
v  -2.8000 -0.4548 1.3000
v  -2.8000 1.5452 1.3000
v  -3.7741 1.5452 1.3000
v  -2.8000 -0.4548 0.2000
v  -2.8000 1.5452 0.2000
v  -3.2000 -0.4548 0.2000
v  -3.2000 1.5452 0.2000
v  -3.2000 -0.4548 0.9000
v  -3.2000 1.5452 0.9000
v  -3.7741 -0.4548 0.9000
v  -3.7741 1.5452 0.9000
# 12 vertices

vn 0.0000 0.0000 1.0000
vn 1.0000 0.0000 -0.0000
vn 0.0000 0.0000 -1.0000
vn -1.0000 0.0000 -0.0000
vn -1.0000 0.0000 0.0000
vn 0.0000 -1.0000 -0.0000
vn 0.0000 1.0000 -0.0000
# 7 vertex normals

vt 38.0885 53.0662 82.3013
vt 40.1495 50.3515 64.8999
vt 40.1495 75.4378 64.8999
vt 38.0885 72.7232 82.3013
vt 32.8749 49.1922 59.5987
vt 32.8749 76.5971 59.5987
vt 32.6970 50.7894 67.1714
vt 32.6970 75.0000 67.1714
vt 36.9362 51.1943 69.4262
vt 36.9362 74.5950 69.4262
vt 36.1339 52.7947 80.1345
vt 36.1339 72.9947 80.1345
# 12 texture coords

g Line02
usemtl wire_006134006
f 53/73/21 54/74/21 55/75/21 
f 53/73/21 55/75/21 56/76/21 
f 54/74/22 57/77/22 58/78/22 
f 54/74/22 58/78/22 55/75/22 
f 57/77/23 59/79/23 60/80/23 
f 57/77/23 60/80/23 58/78/23 
f 59/79/24 61/81/24 62/82/24 
f 59/79/24 62/82/24 60/80/24 
f 61/81/23 63/83/23 64/84/23 
f 61/81/23 64/84/23 62/82/23 
f 63/83/25 53/73/25 56/76/25 
f 63/83/25 56/76/25 64/84/25 
f 61/81/26 53/73/26 63/83/26 
f 61/81/26 54/74/26 53/73/26 
f 61/81/26 57/77/26 54/74/26 
f 59/79/26 57/77/26 61/81/26 
f 62/82/27 64/84/27 56/76/27 
f 62/82/27 56/76/27 55/75/27 
f 62/82/27 55/75/27 58/78/27 
f 60/80/27 62/82/27 58/78/27 
# 20 faces

