# 3ds Max Wavefront OBJ Exporter v0.97b - (c)2007 guruware
# File Created: 02.01.2011 19:14:07

#
# object Rectangle01
#

v  -2.0000 0.5358 -2.0000
v  2.0000 0.5358 -2.0000
v  2.0000 -0.1642 -2.0000
v  -2.0000 -0.1642 -2.0000
v  -2.0000 0.5358 2.0000
v  -2.0000 -0.1642 2.0000
v  2.0000 0.5358 2.0000
v  2.0000 -0.1642 2.0000
v  -1.7500 0.5358 1.7500
v  1.7500 0.5358 1.7500
v  1.7500 -0.1642 -1.7500
v  1.7500 -0.1642 1.7500
v  -1.7500 0.5358 -1.7500
v  -1.7500 -0.1642 -1.7500
v  1.7500 0.5358 -1.7500
v  -1.7500 -0.1642 1.7500
# 16 vertices

vn 0.0000 0.0000 -1.0000
vn -1.0000 0.0000 -0.0000
vn 0.0000 0.0000 1.0000
vn 1.0000 0.0000 -0.0000
vn 0.0000 1.0000 -0.0000
vn 0.0000 -1.0000 -0.0000
# 6 vertex normals

vt 141.5131 33.9122 57.0000
vt 110.0657 33.9122 57.0000
vt 110.0657 28.9825 57.0000
vt 141.5131 28.9825 57.0000
vt 47.1710 33.9122 57.0000
vt 15.7237 33.9122 57.0000
vt 15.7237 28.9825 57.0000
vt 47.1710 28.9825 57.0000
vt 78.6184 33.9122 57.0000
vt 78.6184 28.9825 57.0000
vt 47.1710 34.2600 49.9900
vt 78.6184 34.2600 49.9900
vt 110.0657 28.6347 49.9900
vt 78.6184 28.6347 49.9900
vt 141.5131 34.2600 49.9900
vt 141.5131 28.6347 49.9900
vt 110.0657 34.2600 49.9900
vt 47.1710 28.6347 49.9900
vt 15.7237 28.6347 49.9900
vt 15.7237 34.2600 49.9900
vt -15.7237 34.2600 49.9900
vt -15.7237 33.9122 57.0000
# 22 texture coords

g Rectangle01
f 1/1/1 2/2/1 3/3/1 
f 3/3/1 4/4/1 1/1/1 
f 5/5/2 1/6/2 4/7/2 
f 4/7/2 6/8/2 5/5/2 
f 7/9/3 5/5/3 6/8/3 
f 6/8/3 8/10/3 7/9/3 
f 2/2/4 7/9/4 8/10/4 
f 8/10/4 3/3/4 2/2/4 
f 9/11/5 5/5/5 7/9/5 
f 7/9/5 10/12/5 9/11/5 
f 11/13/6 3/3/6 8/10/6 
f 8/10/6 12/14/6 11/13/6 
f 13/15/3 14/16/3 11/13/3 
f 11/13/3 15/17/3 13/15/3 
f 9/11/4 16/18/4 14/19/4 
f 14/19/4 13/20/4 9/11/4 
f 10/12/1 12/14/1 16/18/1 
f 16/18/1 9/11/1 10/12/1 
f 15/17/2 11/13/2 12/14/2 
f 12/14/2 10/12/2 15/17/2 
f 13/20/5 1/6/5 5/5/5 
f 5/5/5 9/11/5 13/20/5 
f 13/20/5 15/21/5 2/22/5 
f 2/22/5 1/6/5 13/20/5 
f 15/17/5 10/12/5 7/9/5 
f 7/9/5 2/2/5 15/17/5 
f 11/13/6 14/16/6 4/4/6 
f 4/4/6 3/3/6 11/13/6 
f 14/19/6 16/18/6 6/8/6 
f 6/8/6 4/7/6 14/19/6 
f 16/18/6 12/14/6 8/10/6 
f 8/10/6 6/8/6 16/18/6 
# 32 faces

#
# object Rectangle03
#

v  0.2000 -0.1642 -1.7914
v  -0.2000 -0.1642 -1.7914
v  -0.2000 0.5358 -1.7914
v  0.2000 0.5358 -1.7914
v  -0.2000 -0.1642 -0.7914
v  -0.2000 0.5358 -0.7914
v  0.2000 -0.1642 -0.7914
v  0.2000 0.5358 -0.7914
# 8 vertices

vn 0.0000 0.0000 -1.0000
vn -1.0000 0.0000 -0.0000
vn 0.0000 0.0000 1.0000
vn 1.0000 0.0000 -0.0000
vn 0.0000 -1.0000 -0.0000
vn 0.0000 1.0000 -0.0000
# 6 vertex normals

vt -2.2259 27.6078 36.7242
vt 2.2259 27.6078 36.7242
vt 2.2259 35.2869 36.7242
vt -2.2259 35.2869 36.7242
vt 4.9555 23.3381 17.7633
vt 4.9555 39.5566 17.7633
vt -4.9555 23.3381 17.7633
vt -4.9555 39.5566 17.7633
vt 120.8339 23.3381 17.7633
vt 123.5635 27.6078 36.7242
vt 123.5635 35.2869 36.7242
vt 120.8339 39.5566 17.7633
# 12 texture coords

g Rectangle03
f 17/23/7 18/24/7 19/25/7 
f 17/23/7 19/25/7 20/26/7 
f 18/24/8 21/27/8 22/28/8 
f 18/24/8 22/28/8 19/25/8 
f 21/27/9 23/29/9 24/30/9 
f 21/27/9 24/30/9 22/28/9 
f 23/31/10 17/32/10 20/33/10 
f 23/31/10 20/33/10 24/34/10 
f 21/27/11 17/23/11 23/29/11 
f 18/24/11 17/23/11 21/27/11 
f 22/28/12 24/30/12 20/26/12 
f 19/25/12 22/28/12 20/26/12 
# 12 faces

#
# object Rectangle04
#

v  0.2000 -0.1642 0.7856
v  -0.2000 -0.1642 0.7856
v  -0.2000 0.5358 0.7856
v  0.2000 0.5358 0.7856
v  -0.2000 -0.1642 1.7856
v  -0.2000 0.5358 1.7856
v  0.2000 -0.1642 1.7856
v  0.2000 0.5358 1.7856
# 8 vertices

vn 0.0000 0.0000 -1.0000
vn -1.0000 0.0000 -0.0000
vn 0.0000 0.0000 1.0000
vn 1.0000 0.0000 -0.0000
vn 0.0000 -1.0000 -0.0000
vn 0.0000 1.0000 -0.0000
# 6 vertex normals

vt 67.8853 23.2879 17.6600
vt 57.9040 23.2879 17.6600
vt 57.9040 39.6068 17.6600
vt 67.8853 39.6068 17.6600
vt 60.6616 27.5958 36.6110
vt 60.6616 35.2989 36.6110
vt 65.1278 27.5958 36.6110
vt 65.1278 35.2989 36.6110
# 8 texture coords

g Rectangle04
f 25/35/13 26/36/13 27/37/13 
f 25/35/13 27/37/13 28/38/13 
f 26/36/14 29/39/14 30/40/14 
f 26/36/14 30/40/14 27/37/14 
f 29/39/15 31/41/15 32/42/15 
f 29/39/15 32/42/15 30/40/15 
f 31/41/16 25/35/16 28/38/16 
f 31/41/16 28/38/16 32/42/16 
f 29/39/17 25/35/17 31/41/17 
f 26/36/17 25/35/17 29/39/17 
f 30/40/18 32/42/18 28/38/18 
f 27/37/18 30/40/18 28/38/18 
# 12 faces

#
# object Rectangle05
#

v  0.7743 -0.1642 -0.2000
v  0.7743 -0.1642 0.2000
v  0.7743 0.5358 0.2000
v  0.7743 0.5358 -0.2000
v  1.7743 -0.1642 0.2000
v  1.7743 0.5358 0.2000
v  1.7743 -0.1642 -0.2000
v  1.7743 0.5358 -0.2000
# 8 vertices

vn -1.0000 0.0000 0.0000
vn 0.0000 0.0000 1.0000
vn 1.0000 0.0000 -0.0000
vn -0.0000 0.0000 -1.0000
vn 0.0000 -1.0000 -0.0000
vn 0.0000 1.0000 -0.0000
# 6 vertex normals

vt 99.4027 23.1880 17.4585
vt 89.2813 23.1880 17.4585
vt 89.2813 39.7067 17.4585
vt 99.4027 39.7067 17.4585
vt 92.0948 27.5721 36.3898
vt 92.0948 35.3226 36.3898
vt 96.5893 27.5721 36.3898
vt 96.5893 35.3226 36.3898
# 8 texture coords

g Rectangle05
f 33/43/19 34/44/19 35/45/19 
f 33/43/19 35/45/19 36/46/19 
f 34/44/20 37/47/20 38/48/20 
f 34/44/20 38/48/20 35/45/20 
f 37/47/21 39/49/21 40/50/21 
f 37/47/21 40/50/21 38/48/21 
f 39/49/22 33/43/22 36/46/22 
f 39/49/22 36/46/22 40/50/22 
f 37/47/23 33/43/23 39/49/23 
f 34/44/23 33/43/23 37/47/23 
f 38/48/24 40/50/24 36/46/24 
f 35/45/24 38/48/24 36/46/24 
# 12 faces

#
# object Rectangle06
#

v  -1.7615 -0.1642 -0.2000
v  -1.7615 -0.1642 0.2000
v  -1.7615 0.5358 0.2000
v  -1.7615 0.5358 -0.2000
v  -0.7615 -0.1642 0.2000
v  -0.7615 0.5358 0.2000
v  -0.7615 -0.1642 -0.2000
v  -0.7615 0.5358 -0.2000
# 8 vertices

vn -1.0000 0.0000 0.0000
vn 0.0000 0.0000 1.0000
vn 1.0000 0.0000 -0.0000
vn -0.0000 0.0000 -1.0000
vn 0.0000 -1.0000 -0.0000
vn 0.0000 1.0000 -0.0000
# 6 vertex normals

vt 29.1840 27.5451 36.1412
vt 33.7107 27.5451 36.1412
vt 33.7107 35.3496 36.1412
vt 29.1840 35.3496 36.1412
vt 36.5891 23.0731 17.2328
vt 36.5891 39.8216 17.2328
vt 26.3056 23.0731 17.2328
vt 26.3056 39.8216 17.2328
# 8 texture coords

g Rectangle06
f 41/51/25 42/52/25 43/53/25 
f 41/51/25 43/53/25 44/54/25 
f 42/52/26 45/55/26 46/56/26 
f 42/52/26 46/56/26 43/53/26 
f 45/55/27 47/57/27 48/58/27 
f 45/55/27 48/58/27 46/56/27 
f 47/57/28 41/51/28 44/54/28 
f 47/57/28 44/54/28 48/58/28 
f 45/55/29 41/51/29 47/57/29 
f 42/52/29 41/51/29 45/55/29 
f 46/56/30 48/58/30 44/54/30 
f 43/53/30 46/56/30 44/54/30 
# 12 faces

